<?xml version="1.0" encoding="utf-8"?>
<!-- Generator: Adobe Illustrator 16.0.0, SVG Export Plug-In . SVG Version: 6.00 Build 0)  -->
<!DOCTYPE svg PUBLIC "-//W3C//DTD SVG 1.1//EN" "http://www.w3.org/Graphics/SVG/1.1/DTD/svg11.dtd">
<svg version="1.1" id="Layer_1" xmlns="http://www.w3.org/2000/svg" xmlns:xlink="http://www.w3.org/1999/xlink" x="0px" y="0px"
	 width="924.567px" height="260.715px" viewBox="0 0 924.567 260.715" enable-background="new 0 0 924.567 260.715"
	 xml:space="preserve">
<g>
	<path fill="#93C16D" d="M135.046,20.681c0,0,47.673,32.14,83.681,58.313c20.28-0.634,34.095,0.323,34.095,0.323
		C226.492,59.861,196.703,37.128,141.368,0C61.755,14.756,12.65,51.115,12.65,51.115c4.833,2.814,9.318,5.626,13.538,8.417
		C48.419,47.042,87.613,28.446,135.046,20.681"/>
	<path fill="#31A475" d="M40.757,69.927c-4.402-3.403-9.26-6.885-14.569-10.395c-12.677,7.122-19.86,12.263-19.86,12.263
		c4.5,3.253,8.674,6.405,12.588,9.479C25.046,77.865,32.422,73.96,40.757,69.927"/>
	<path fill="#31A475" d="M218.727,78.994c-9.723,0.304-20.945,0.98-32.834,2.295c8.844,6.246,17.779,12.604,26.104,18.602
		c20.444-0.844,34.501,0.107,34.501,0.107C239.388,94.239,229.582,86.885,218.727,78.994"/>
	<path fill="#5AA427" d="M128.718,41.369c0,0,27.973,19.289,57.175,39.919c11.891-1.313,23.112-1.989,32.834-2.293
		c-36.008-26.175-83.681-58.314-83.681-58.314C87.613,28.445,48.42,47.042,26.188,59.531c5.309,3.513,10.168,6.993,14.57,10.396
		C65.001,58.192,97.112,45.457,128.718,41.369"/>
	<path fill="#004D2A" d="M73.094,149.331c0,0,0.743-24.97-54.178-68.057C7.13,87.812,0,92.483,0,92.483
		c62.369,51.805,63.762,87.35,63.762,87.35c38.64-60.812,176.414-59.146,176.414-59.146c-7.109-5.481-17.09-12.817-28.179-20.797
		C170.813,101.588,103.666,110.57,73.094,149.331"/>
	<path fill="#009156" d="M82.736,117.785c0,0-8.212-21.75-41.98-47.857c-8.333,4.033-15.709,7.938-21.841,11.345
		c54.921,43.088,54.178,68.058,54.178,68.058c30.573-38.759,97.721-47.743,138.902-49.438c-8.324-5.998-17.26-12.357-26.103-18.602
		C150.361,85.21,108.784,94.873,82.736,117.785"/>
	<path fill="#529527" d="M40.757,69.927c33.766,26.107,41.979,47.858,41.979,47.858c26.047-22.913,67.624-32.575,103.156-36.496
		c-29.201-20.63-57.176-39.918-57.176-39.918C97.111,45.458,65,58.191,40.757,69.927"/>
</g>
<g>
	<path fill="#FFFFFF" d="M164.834,177.125c-17.938,0-26.504,15.855-26.272,32.179c-0.232,16.435,8.911,30.09,26.272,30.09
		c14.12,0,23.381-7.642,25.693-21.522h-4.397c-2.083,10.996-10.071,17.707-21.296,17.707c-14.698,0-22.108-12.736-21.875-26.736
		h48.031C191.802,191.827,183.471,177.125,164.834,177.125z M142.959,205.021c0.925-11.804,8.681-24.073,21.875-24.073
		c13.66,0,21.528,11.573,21.759,24.073H142.959z"/>
	<path fill="#FFFFFF" d="M222.88,177.125c-9.265,0-18.289,5.209-21.301,14.121h-0.23V178.52h-4.401v59.486h4.401v-32.174
		c0-14.586,8.102-24.887,21.413-24.887c16.205,0,16.896,13.307,16.896,19.447v37.611h4.4v-36.801
		C244.058,193.915,243.825,177.125,222.88,177.125z"/>
	<path fill="#FFFFFF" d="M296.313,190.902h-0.233c-3.24-8.911-12.262-13.774-21.526-13.774c-16.776,0-25.694,13.545-25.694,29.289
		c0,16.545,8.221,29.394,25.694,29.394c10.072,0,17.358-4.746,21.526-13.546h0.233v13.662c0,3.938-0.346,20.943-21.183,20.943
		c-9.722,0-18.051-4.162-18.979-14.699h-4.398c0.697,13.779,10.533,18.524,23.264,18.524c25.696,0.81,25.696-21.181,25.696-25.812
		v-56.364h-4.4V190.902L296.313,190.902z M274.553,231.991c-14,0-21.294-11.574-21.294-25.574c0-12.625,6.941-25.469,21.294-25.469
		c14.582,0,21.643,12.155,21.643,25.469C296.195,219.833,289.021,231.991,274.553,231.991z"/>
	<path fill="#FFFFFF" d="M336.89,182.568v-4.396c-10.766-0.467-20.484,5.787-22.804,13.539h-0.347v-13.192h-4.4v59.487h4.4v-32.522
		c0.462-8.909,2.313-12.616,6.714-17.127C325.775,183.15,332.256,181.991,336.89,182.568z"/>
	<path fill="#FFFFFF" d="M360.568,177.125c-17.479,0-27.319,14.24-27.319,31.14c0,16.894,9.842,31.131,27.319,31.131
		c17.477,0,27.312-14.237,27.312-31.131C387.88,191.366,378.045,177.125,360.568,177.125z M360.568,235.579
		c-14.936,0-22.919-13.078-22.919-27.313c0-14.239,7.983-27.317,22.919-27.317c14.928,0,22.913,13.078,22.913,27.317
		C383.481,222.5,375.496,235.579,360.568,235.579z"/>
</g>
<g>
	<path fill="#818285" d="M439.399,154.624c-1.604,0.469-3.013,1.17-4.222,2.11c-1.215,0.938-2.171,2.168-2.874,3.692
		c-0.704,1.525-1.058,3.343-1.058,5.451v12.431h-10.785v3.87h10.785v56.404h4.459v-56.404h12.545v-3.87h-12.545V166.23
		c0-3.358,0.837-5.606,2.52-6.743c1.68-1.132,3.771-1.701,6.274-1.701c1.562,0,3.321,0.199,5.276,0.59v-3.871
		c-1.955-0.391-3.716-0.586-5.276-0.586C442.7,153.917,441.001,154.153,439.399,154.624z"/>
	<path fill="#818285" d="M500.668,186.284c-2.346-2.892-5.24-5.179-8.678-6.861c-3.441-1.68-7.389-2.52-11.842-2.52
		c-4.457,0-8.406,0.84-11.846,2.52c-3.441,1.684-6.333,3.971-8.677,6.861s-4.126,6.233-5.336,10.025
		c-1.214,3.793-1.818,7.839-1.818,12.136c0,4.3,0.604,8.368,1.818,12.194c1.21,3.832,2.991,7.174,5.336,10.027
		s5.236,5.121,8.677,6.801c3.438,1.682,7.389,2.521,11.846,2.521c4.453,0,8.4-0.839,11.842-2.521
		c3.438-1.68,6.332-3.946,8.678-6.801s4.123-6.195,5.336-10.027c1.209-3.826,1.818-7.896,1.818-12.194
		c0-4.297-0.609-8.343-1.818-12.136C504.792,192.517,503.014,189.174,500.668,186.284z M501.84,218.825
		c-1.016,3.322-2.502,6.272-4.455,8.852c-1.957,2.582-4.379,4.632-7.27,6.156c-2.895,1.524-6.215,2.287-9.967,2.287
		c-3.754,0-7.078-0.763-9.969-2.287c-2.895-1.524-5.318-3.574-7.271-6.156c-1.954-2.578-3.44-5.528-4.455-8.852
		c-1.016-3.324-1.525-6.783-1.525-10.38c0-3.595,0.511-7.054,1.525-10.377s2.501-6.274,4.455-8.853
		c1.953-2.582,4.377-4.633,7.271-6.156c2.891-1.525,6.215-2.288,9.969-2.288c3.752,0,7.072,0.763,9.967,2.288
		c2.891,1.523,5.313,3.574,7.27,6.156c1.953,2.578,3.439,5.529,4.455,8.853c1.018,3.324,1.523,6.782,1.523,10.377
		C503.364,212.042,502.856,215.5,501.84,218.825z"/>
	<path fill="#818285" d="M561.526,210.909c0,3.674-0.49,7.055-1.467,10.143c-0.977,3.091-2.404,5.746-4.279,7.974
		c-1.875,2.229-4.162,3.97-6.859,5.22c-2.699,1.25-5.729,1.875-9.088,1.875c-4.145,0-7.35-0.74-9.613-2.228
		c-2.271-1.483-3.971-3.263-5.104-5.334c-1.135-2.071-1.816-4.224-2.053-6.45c-0.232-2.229-0.352-4.124-0.352-5.689V178.31h-4.457
		v37.289c0,1.25,0.039,2.716,0.119,4.397c0.076,1.68,0.311,3.42,0.705,5.217c0.389,1.8,1.035,3.576,1.932,5.336
		c0.898,1.76,2.131,3.342,3.693,4.748s3.578,2.541,6.041,3.398c2.461,0.86,5.453,1.293,8.971,1.293c2.344,0,4.65-0.314,6.92-0.939
		c2.264-0.623,4.355-1.563,6.273-2.813c1.914-1.251,3.592-2.757,5.039-4.516c1.445-1.758,2.561-3.771,3.344-6.04h0.234v12.899h4.457
		V178.31h-4.457V210.909L561.526,210.909z"/>
	<path fill="#818285" d="M626.018,191.676c-0.391-1.797-1.035-3.575-1.936-5.334c-0.898-1.762-2.129-3.344-3.691-4.752
		c-1.566-1.404-3.576-2.537-6.039-3.397s-5.453-1.292-8.973-1.292c-2.344,0-4.648,0.314-6.918,0.939
		c-2.268,0.625-4.357,1.564-6.271,2.813c-1.916,1.252-3.596,2.758-5.043,4.518c-1.449,1.758-2.563,3.771-3.344,6.037h-0.232v-12.898
		h-4.457v60.271h4.457v-32.599c0-3.672,0.488-7.054,1.467-10.142c0.975-3.088,2.402-5.746,4.279-7.975s4.164-3.968,6.859-5.22
		c2.695-1.249,5.727-1.874,9.088-1.874c4.063,0,7.248,0.742,9.559,2.227c2.303,1.485,4.021,3.267,5.154,5.336
		c1.135,2.07,1.82,4.221,2.055,6.449s0.354,4.125,0.354,5.688v38.106h4.457V201.29c0-1.246-0.041-2.715-0.121-4.396
		C626.645,195.215,626.411,193.476,626.018,191.676z"/>
	<path fill="#818285" d="M686.528,191.793h-0.234c-0.783-2.348-1.918-4.457-3.402-6.332c-1.482-1.877-3.227-3.438-5.219-4.69
		c-1.992-1.249-4.162-2.208-6.508-2.873c-2.346-0.662-4.729-0.995-7.152-0.995c-4.533,0-8.482,0.818-11.844,2.463
		c-3.361,1.641-6.156,3.868-8.385,6.682c-2.229,2.814-3.889,6.158-4.982,10.027s-1.643,8.031-1.643,12.489
		c0,4.144,0.508,8.11,1.523,11.899c1.018,3.795,2.58,7.135,4.689,10.025c2.113,2.895,4.809,5.201,8.092,6.918
		c3.283,1.723,7.193,2.582,11.729,2.582c5.395,0,9.967-1.193,13.719-3.576c3.752-2.386,6.877-5.961,9.383-10.729h0.234v12.897h4.455
		v-83.727h-4.455V191.793z M685.061,218.708c-0.898,3.321-2.27,6.272-4.102,8.852c-1.84,2.58-4.146,4.652-6.922,6.217
		c-2.775,1.563-6.078,2.344-9.91,2.344c-3.91,0-7.268-0.762-10.084-2.285c-2.813-1.523-5.141-3.576-6.975-6.156
		c-1.842-2.581-3.207-5.529-4.105-8.854c-0.898-3.322-1.348-6.742-1.348-10.26c0-3.598,0.408-7.074,1.23-10.438
		c0.818-3.36,2.148-6.334,3.986-8.912c1.836-2.58,4.162-4.633,6.979-6.157c2.814-1.524,6.213-2.286,10.199-2.286
		c3.828,0,7.17,0.782,10.027,2.346c2.852,1.564,5.178,3.655,6.975,6.272c1.801,2.62,3.148,5.591,4.047,8.914
		c0.9,3.321,1.35,6.743,1.35,10.261C686.409,212,685.959,215.383,685.061,218.708z"/>
	<path fill="#818285" d="M751.256,233.952c-0.549-0.429-0.939-0.994-1.174-1.697c-0.236-0.701-0.373-1.483-0.41-2.342
		c-0.041-0.856-0.059-1.715-0.059-2.574v-34.758c0-3.117-0.607-5.692-1.82-7.719c-1.209-2.029-2.811-3.629-4.805-4.8
		c-1.994-1.17-4.242-1.989-6.744-2.459c-2.502-0.468-5.082-0.7-7.738-0.7c-7.113,0-12.646,1.66-16.594,4.982
		c-3.949,3.324-6.078,8.308-6.391,14.949h4.455c0.311-5.234,2.129-9.223,5.453-11.961c3.324-2.733,7.682-4.104,13.074-4.104
		c3.439,0,6.254,0.488,8.443,1.466c2.188,0.979,3.887,2.132,5.102,3.46c1.209,1.329,2.053,2.639,2.521,3.93
		c0.467,1.289,0.705,2.285,0.705,2.99c0,2.502-0.16,4.475-0.473,5.92c-0.313,1.446-1.133,2.621-2.463,3.52
		c-1.328,0.898-3.381,1.564-6.152,1.992c-2.777,0.431-6.67,0.803-11.67,1.113c-2.504,0.235-5.063,0.627-7.682,1.174
		s-5.002,1.465-7.154,2.754c-2.148,1.293-3.908,3.05-5.275,5.277c-1.367,2.229-2.055,5.102-2.055,8.619
		c0,3.207,0.512,5.881,1.525,8.032c1.016,2.151,2.441,3.89,4.281,5.218c1.836,1.332,3.986,2.288,6.449,2.873
		c2.463,0.587,5.1,0.881,7.916,0.881c2.893,0,5.551-0.354,7.973-1.056c2.424-0.704,4.592-1.681,6.508-2.933
		c1.914-1.25,3.537-2.676,4.869-4.278c1.328-1.604,2.344-3.304,3.047-5.103h0.234v3.164c0,1.254,0.098,2.405,0.293,3.461
		c0.193,1.055,0.566,1.977,1.115,2.756c0.543,0.783,1.35,1.406,2.402,1.877c1.055,0.469,2.48,0.703,4.281,0.703
		c0.625,0,1.229-0.039,1.816-0.119c0.586-0.076,1.189-0.192,1.814-0.352v-3.867c-1.404,0.232-2.498,0.352-3.281,0.352
		C752.583,234.594,751.799,234.379,751.256,233.952z M745.157,215.599c0,0.78-0.215,2.286-0.645,4.515
		c-0.432,2.229-1.428,4.533-2.99,6.92c-1.564,2.385-3.832,4.495-6.803,6.332c-2.971,1.836-6.998,2.754-12.076,2.754
		c-5.318,0-9.285-1.271-11.902-3.811c-2.621-2.54-3.93-5.648-3.93-9.323c0-4.534,1.426-7.836,4.281-9.909
		c2.852-2.07,6.938-3.418,12.252-4.045c2.188-0.313,4.377-0.547,6.566-0.703c2.189-0.154,4.281-0.353,6.275-0.586
		c1.992-0.236,3.77-0.604,5.334-1.115c1.563-0.506,2.773-1.269,3.635-2.285v11.257H745.157z"/>
	<path fill="#818285" d="M772.833,159.545h-4.457v18.763h-11.141v3.87h11.141v42.097c-0.16,3.44,0.25,6.138,1.232,8.093
		c0.975,1.955,2.285,3.42,3.928,4.396c1.643,0.979,3.537,1.563,5.686,1.759c2.148,0.194,4.355,0.215,6.627,0.062v-3.869
		c-2.111,0.078-3.971,0.019-5.568-0.18c-1.604-0.193-2.975-0.644-4.105-1.347c-1.133-0.704-1.977-1.758-2.521-3.165
		c-0.545-1.408-0.818-3.322-0.818-5.748v-42.097h13.131v-3.87h-13.131v-18.764H772.833z"/>
	<rect x="795.227" y="178.308" fill="#818285" width="4.457" height="60.272"/>
	<rect x="795.227" y="154.856" fill="#818285" width="4.457" height="12.078"/>
	<path fill="#818285" d="M859.254,186.284c-2.346-2.892-5.242-5.179-8.678-6.861c-3.443-1.68-7.389-2.52-11.844-2.52
		c-4.457,0-8.406,0.84-11.846,2.52c-3.441,1.684-6.332,3.971-8.676,6.861c-2.346,2.891-4.127,6.233-5.336,10.025
		c-1.215,3.793-1.82,7.839-1.82,12.136c0,4.3,0.605,8.368,1.82,12.194c1.209,3.832,2.99,7.174,5.336,10.027
		c2.344,2.854,5.234,5.121,8.676,6.801c3.438,1.682,7.389,2.521,11.846,2.521c4.455,0,8.398-0.839,11.844-2.521
		c3.436-1.68,6.332-3.946,8.678-6.801c2.344-2.854,4.121-6.195,5.334-10.027c1.211-3.826,1.818-7.896,1.818-12.194
		c0-4.297-0.607-8.343-1.818-12.136C863.375,192.517,861.598,189.174,859.254,186.284z M860.424,218.825
		c-1.016,3.322-2.502,6.272-4.455,8.852c-1.957,2.582-4.379,4.632-7.27,6.156c-2.895,1.524-6.215,2.287-9.967,2.287
		c-3.756,0-7.078-0.763-9.969-2.287c-2.895-1.524-5.318-3.574-7.271-6.156c-1.951-2.578-3.439-5.528-4.455-8.852
		c-1.016-3.324-1.523-6.783-1.523-10.38c0-3.595,0.51-7.054,1.523-10.377c1.016-3.323,2.504-6.274,4.455-8.853
		c1.953-2.582,4.377-4.633,7.271-6.156c2.891-1.525,6.215-2.288,9.969-2.288c3.752,0,7.072,0.763,9.967,2.288
		c2.891,1.523,5.313,3.574,7.27,6.156c1.953,2.578,3.439,5.529,4.455,8.853c1.018,3.324,1.525,6.782,1.525,10.377
		C861.95,212.042,861.44,215.5,860.424,218.825z"/>
	<path fill="#818285" d="M924.448,196.894c-0.078-1.679-0.313-3.418-0.705-5.218c-0.389-1.797-1.035-3.575-1.934-5.334
		c-0.896-1.762-2.131-3.344-3.691-4.752c-1.568-1.404-3.576-2.537-6.039-3.397s-5.453-1.292-8.973-1.292
		c-2.346,0-4.65,0.314-6.918,0.939c-2.27,0.625-4.357,1.564-6.273,2.813c-1.916,1.252-3.596,2.758-5.043,4.518
		c-1.447,1.758-2.563,3.771-3.342,6.037h-0.232v-12.898h-4.457v60.271h4.457v-32.599c0-3.672,0.488-7.054,1.465-10.142
		s2.404-5.746,4.281-7.975c1.875-2.229,4.16-3.968,6.857-5.22c2.697-1.249,5.727-1.874,9.09-1.874c4.063,0,7.25,0.742,9.557,2.227
		c2.307,1.485,4.023,3.267,5.158,5.336c1.133,2.07,1.818,4.221,2.051,6.449c0.236,2.229,0.355,4.125,0.355,5.688v38.106h4.457
		V201.29C924.567,200.043,924.526,198.577,924.448,196.894z"/>
</g>
</svg>
